PathFileType	4	(X/Y/Z)	OpenSim_Sub03_EMGStiffKnee_Accel.trc
DataRate	CameraRate	NumFrames	NumMarkers	Units	OrigDataRate	OrigDataStartFrame	OrigNumFrames
100	100	27	8	m	100	950	7597
Frame#	Time	torso_imu_offset_imu	pelvis_imu_offset_imu	tibia_r_imu_offset_imu	femur_r_imu_offset_imu	tibia_l_imu_offset_imu	femur_l_imu_offset_imu	toes_r_imu_offset_imu	toes_l_imu_offset_imu
				X1	Y1	Z1	X2	Y2	Z2	X3	Y3	Z3	X4	Y4	Z4	X5	Y5	Z5	X6	Y6	Z6	X7	Y7	Z7	X8		Y8	Z8	

950	9.49000000	9.36891535	-1.95316427	2.77441827	9.29691342	1.21196232	2.56010915	10.35967117	-0.09954513	0.08954270	9.26564071	-1.47206504	-0.38344886	10.39484262	-0.76062014	0.90014950	10.04255953	-0.45000944	-0.02907298	5.45672021	-4.71879284	7.11596270	3.13050161	2.74570180	14.70687555
951	9.50000000	9.69070405	-1.73877502	2.94776383	10.14729099	1.20840032	2.41229512	10.01524154	0.68358788	-0.41544031	9.16074150	-1.76199217	-0.49591949	10.51531500	-0.79479682	0.78542582	10.26831081	-0.23706046	-0.16901769	6.01588023	-3.93695527	6.99780735	3.53072840	2.66976998	14.98580884
952	9.51000000	10.06361390	-1.57358038	3.28370229	10.59065037	1.01502716	2.45691239	10.15033730	1.01841002	-0.28666306	9.38465395	-2.31081559	-0.67309578	10.71650344	-0.76325437	0.41324017	10.06207160	0.20633522	-0.20431393	6.64159391	-3.29371625	7.54422220	3.93455812	2.84194915	14.95468433
953	9.52000000	10.34135261	-1.40912064	3.72115005	10.57469979	1.33999304	2.50811481	10.21250803	1.18744380	0.04612671	9.35313568	-2.10787303	-0.71318410	10.94141641	-0.54925116	0.14693287	9.98514881	0.74448902	-0.35849436	6.69159791	-3.18248214	7.64930205	4.50478859	3.24082536	14.75103040
954	9.53000000	10.55432905	-1.32940867	4.08220213	10.28422816	1.68951670	2.52349893	10.01134226	1.27409661	-0.00175576	9.36466178	-1.57570599	-0.68055334	11.13420602	-0.15898735	0.38890504	10.03706048	1.12803964	-0.51162940	6.51641974	-3.08151950	7.75723617	5.12757618	3.35643372	14.39759761
955	9.54000000	10.56820172	-1.25628664	4.31822428	9.76432111	1.88472385	2.50157547	10.06141888	0.83864407	0.05119250	9.37420305	-1.12585737	-0.71281132	11.17847251	-0.05566870	0.49129758	9.88025380	1.53715824	-0.29599592	6.59558080	-2.95788408	7.46585550	5.63562666	3.13148540	13.83801634
956	9.55000000	10.46891907	-1.25045605	4.47614799	9.33865303	1.98828189	2.45151070	10.11952289	0.40591666	-0.00713476	9.35984632	-0.82541659	-0.64565180	11.09206288	-0.04177027	0.43444832	9.67075308	1.76571755	0.15229148	6.64337167	-3.20383210	7.46225007	5.93620189	3.15566007	13.20529900
957	9.56000000	10.23636107	-1.18931451	4.60245091	9.03845650	1.89666183	2.42010565	10.01329188	0.50703362	0.00131434	9.38556894	-0.75108476	-0.52323775	11.10164539	0.08012700	0.65683563	9.82288531	1.58886105	0.44099418	6.18695208	-3.26093137	7.58666147	5.90116345	3.15900763	12.71583360
958	9.57000000	9.94598803	-1.13114170	4.63904008	9.01318544	2.35712424	2.40736817	9.95557137	0.58319219	0.17202295	9.44584313	-0.63679633	-0.33726054	11.12722803	-0.01997150	0.82937313	9.85539011	1.56086541	0.57796095	5.96455820	-3.20287799	7.55732958	6.00507654	2.64172668	12.38484383
959	9.58000000	9.74618108	-1.07557723	4.64125847	8.69473341	1.80542901	2.37546034	9.94663451	0.35135706	0.09462874	9.45345549	-0.58794963	-0.09164579	11.03340577	-0.06984760	0.70675676	9.64114390	1.75097011	0.57154313	5.72861819	-3.28497128	7.35605357	6.68890612	2.10509021	12.44039098
960	9.59000000	9.54652283	-1.03360825	4.64719269	8.62227169	1.95047369	2.21698779	10.02294026	0.04508215	0.03839548	9.48089066	-0.52768185	0.05787388	10.88569203	-0.19648975	0.88951932	9.43073225	1.92900037	0.39654653	5.85371432	-3.50129760	7.38776659	7.49819257	1.68411576	12.63293218
961	9.60000000	9.33179413	-1.00748013	4.64250752	8.67292167	2.07141728	2.06847242	10.03991437	0.07300991	0.19741794	9.49284580	-0.60311751	0.13894410	10.75831666	-0.58213633	0.97988689	9.28127719	1.89817081	0.25411967	5.88035384	-3.61771576	7.31579765	7.87585833	1.16169704	12.46681677
962	9.61000000	9.12143783	-0.97888048	4.68200644	8.64504700	2.15255322	1.88253806	9.86580285	0.27141300	0.27224612	9.54418648	-0.70069815	0.18287426	10.65196993	-0.86289769	0.99421692	9.07077458	1.74841940	0.17187611	5.76218937	-3.35454199	7.29965021	7.88864638	0.78369811	11.96001059
963	9.62000000	8.95552556	-0.93830827	4.68195994	8.79476098	2.12885155	1.74995422	9.82826163	0.23843060	0.41107088	9.49257435	-0.78197457	0.22629221	10.45139828	-0.98227703	1.12513264	8.80613764	1.60649461	-0.06287171	5.56576054	-3.55553970	7.45431866	7.85401583	0.72493317	11.49168258
964	9.63000000	8.82496900	-0.88735266	4.69271868	8.77816660	1.90088424	1.64481956	9.79489930	-0.24666953	0.53922053	9.37073129	-1.00275464	0.27161321	10.15826038	-0.84848083	1.27470592	8.61348383	1.35761326	-0.16884105	6.03470420	-3.61060801	7.18003516	7.85977324	0.65282677	11.25882720
965	9.64000000	8.74278022	-0.86003024	4.76988348	8.71505121	1.93604906	1.53569714	9.53764140	-1.32540765	0.37219204	9.23897997	-1.30831178	0.31487277	9.98074917	-0.77778335	1.43890165	8.53165791	1.26346964	-0.27870814	5.93836853	-3.97272159	6.77466669	7.68975110	0.40985203	10.82506247
966	9.65000000	8.60176275	-0.79706271	4.77381933	8.76626908	1.93135817	1.41972931	9.35779504	-2.23659060	0.43966434	8.94494372	-1.77443811	0.37295711	9.95159882	-0.98921688	1.36458118	8.59939520	1.50570742	-0.16428591	5.59295901	-4.33766435	6.65516045	7.79266096	0.22570269	10.40534104
967	9.66000000	8.54664352	-0.74200656	4.75084195	8.50575849	1.75176888	1.30926305	9.34744127	-1.83863580	0.46224774	8.76122897	-2.30959327	0.27668593	9.87595750	-1.19193555	1.22538127	8.60632044	1.81020305	0.04357818	5.69064520	-3.86852120	7.09964030	8.18680015	0.43946161	9.99372190
968	9.67000000	8.54272813	-0.74378564	4.72565671	8.38635829	1.55847052	1.20655382	9.52404373	-0.93567928	0.60695102	8.95458384	-2.67564035	0.07849497	9.61479946	-1.29884493	1.17594697	8.46284231	2.05127462	0.21220166	5.75346162	-3.54177838	7.13109528	8.47697360	0.53012764	9.49010033
969	9.68000000	8.67245608	-0.72829042	4.70174699	8.35718448	1.43721467	1.10573131	9.60178404	-0.61584165	0.79657537	9.17284861	-2.68653398	-0.00857435	9.39232000	-1.23380808	1.12239201	8.41293725	2.11494305	0.26263546	6.00704256	-3.48430241	7.12358084	9.25176104	0.36138751	9.20958573
970	9.69000000	8.78834350	-0.67677956	4.81096769	8.44728593	1.37563513	1.01097880	9.69026557	-0.51149161	1.04660416	9.06810535	-2.81127163	-0.01609639	9.25170512	-1.30578259	1.05919374	8.52789063	2.10812995	0.39457691	6.32570539	-3.17202694	7.16789688	10.31417460	0.20288952	8.92704654
971	9.70000000	8.99859982	-0.59981623	4.86559595	8.63988450	1.40195861	0.94385242	9.90324515	-0.18120446	1.30098375	9.23496272	-2.63109430	0.06975068	9.42349119	-1.68410296	1.10107274	8.65895344	2.34819684	0.52290148	6.32816423	-2.40660032	7.66617179	10.07186870	-0.16511736	8.04460876
972	9.71000000	9.28199008	-0.59062707	4.89634067	8.82920685	1.49443293	0.84326785	10.20909609	0.57283186	1.26364066	9.66663417	-2.30695840	0.08691951	9.36761287	-1.98140106	0.90286989	8.59455175	2.86890083	0.89086462	6.32725059	-1.85772205	7.87027272	9.65519683	-0.72417504	6.90899949
973	9.72000000	9.39094606	-0.69222807	4.92265896	8.99375537	1.65670862	0.59744030	10.40961402	1.14220213	1.19342128	9.81799515	-2.20481011	0.13503455	9.02584783	-1.81872281	0.85844509	8.44865957	3.39217071	1.05760231	6.40419010	-1.79095571	7.94565055	10.09699303	-0.95641901	6.18089416
974	9.73000000	9.60219715	-0.69745311	4.95250566	9.24707432	1.79411516	0.42486697	10.46257255	1.67063538	1.11165334	9.94070420	-1.74207445	0.26542584	9.00932638	-1.38444257	1.22141121	8.36381942	3.66685436	1.00182139	6.34681205	-1.82671478	8.05670708	10.40501904	-1.00027415	5.56661980
975	9.74000000	9.73224713	-0.67369985	5.09425117	9.41779968	1.88190060	0.31285451	10.55692440	1.97550231	0.90078994	9.81873196	-1.64586367	0.45150209	8.95038241	-0.98955909	1.37814139	8.31912494	3.66350495	1.00410009	6.38627953	-1.86711205	8.01634373	10.81984147	-1.12553015	4.91258496
976	9.75000000	9.72973767	-0.59547259	5.20154779	9.59181509	1.97285552	0.17410152	10.41784697	1.93264316	0.93631169	9.81946055	-0.99042852	0.55355440	8.76174620	-0.84635946	1.45960084	8.25719404	3.54397368	0.94866492	6.13979970	-2.22558525	7.99128068	11.20046507	-1.19035508	4.59750504
